<?xml version="1.0" encoding="UTF-8"?>
<!DOCTYPE svg PUBLIC "-//W3C//DTD SVG 1.1//EN" "http://www.w3.org/Graphics/SVG/1.1/DTD/svg11.dtd">
<svg xmlns="http://www.w3.org/2000/svg" version="1.1" width="387px" height="387px" style="shape-rendering:geometricPrecision; text-rendering:geometricPrecision; image-rendering:optimizeQuality; fill-rule:evenodd; clip-rule:evenodd" xmlns:xlink="http://www.w3.org/1999/xlink">
<g><path style="opacity:1" fill="#5eb87b" d="M 208.5,16.5 C 214.478,16.4196 220.145,17.4196 225.5,19.5C 221.141,19.5343 216.808,19.201 212.5,18.5C 210.667,18.4146 209.334,17.7479 208.5,16.5 Z"/></g>
<g><path style="opacity:0.824" fill="#71be89" d="M 208.5,16.5 C 187.605,15.2257 167.272,17.7257 147.5,24C 144.12,24.9344 141.12,26.6011 138.5,29C 137.207,29.49 135.873,29.6567 134.5,29.5C 138.258,27.0651 142.258,24.8984 146.5,23C 166.803,15.6882 187.47,13.5216 208.5,16.5 Z"/></g>
<g><path style="opacity:1" fill="#27b153" d="M 208.5,16.5 C 209.334,17.7479 210.667,18.4146 212.5,18.5C 216.808,19.201 221.141,19.5343 225.5,19.5C 226.791,19.2627 227.791,19.596 228.5,20.5C 228.62,21.5862 229.287,22.2528 230.5,22.5C 233.565,23.0641 236.565,23.7308 239.5,24.5C 239.369,25.3764 239.702,26.0431 240.5,26.5C 245.007,29.0416 249.674,31.0416 254.5,32.5C 256.167,33.1667 257.833,33.8333 259.5,34.5C 261.928,35.4154 264.261,36.5821 266.5,38C 268.063,38.7589 269.063,39.9256 269.5,41.5C 268.883,41.3893 268.383,41.056 268,40.5C 264.76,42.4284 261.26,43.7617 257.5,44.5C 259.695,45.7691 261.861,45.7691 264,44.5C 264.667,45.1667 264.667,45.8333 264,46.5C 261.26,47.2822 258.426,47.7822 255.5,48C 254.91,49.2989 253.91,50.1322 252.5,50.5C 250.253,49.5944 248.253,48.2611 246.5,46.5C 244.527,47.6399 242.693,48.9733 241,50.5C 233.037,46.3659 224.537,43.6992 215.5,42.5C 193.908,37.3295 172.908,39.1628 152.5,48C 150.937,48.7589 149.937,49.9256 149.5,51.5C 147.545,50.6765 145.545,50.5099 143.5,51C 144.381,51.7083 145.047,52.5416 145.5,53.5C 140.782,53.6903 137.115,55.6903 134.5,59.5C 117.511,70.463 105.511,85.463 98.5,104.5C 92.0751,119.063 89.7418,134.397 91.5,150.5C 89.3129,151.049 88.6462,152.215 89.5,154C 88.2986,154.903 87.4652,156.069 87,157.5C 85.0016,152.049 84.5016,146.549 85.5,141C 84.8095,139.933 84.3095,138.766 84,137.5C 83.6924,138.308 83.1924,138.975 82.5,139.5C 81.8333,137.833 81.1667,136.167 80.5,134.5C 79.7792,136.686 79.1125,138.853 78.5,141C 80.4638,143.518 81.1305,146.184 80.5,149C 81.034,152.506 82.3674,155.672 84.5,158.5C 82.6531,159.83 81.1531,159.497 80,157.5C 79.8236,154.118 79.3236,150.785 78.5,147.5C 76.8679,144.325 75.5346,140.992 74.5,137.5C 73.914,137.291 73.414,136.957 73,136.5C 72.1667,140.5 71.3333,144.5 70.5,148.5C 69.8182,147.757 69.1515,147.091 68.5,146.5C 68.3277,136.143 68.661,125.81 69.5,115.5C 72.0233,110.594 73.3566,105.26 73.5,99.5C 75.0392,93.1723 77.7059,87.5056 81.5,82.5C 82.7206,81.9717 83.8873,81.305 85,80.5C 86.3935,76.3393 87.8935,72.3393 89.5,68.5C 89.5,67.8333 89.8333,67.5 90.5,67.5C 94.1803,63.817 97.5136,59.817 100.5,55.5C 101.552,55.6495 102.552,55.4828 103.5,55C 105.598,52.146 107.931,49.4794 110.5,47C 111.793,46.51 113.127,46.3433 114.5,46.5C 117.351,49.2036 119.684,48.5369 121.5,44.5C 124.421,44.8541 126.754,43.8541 128.5,41.5C 125.355,40.1968 122.355,40.1968 119.5,41.5C 118.292,42.2341 116.959,42.5674 115.5,42.5C 115.5,41.8333 115.5,41.1667 115.5,40.5C 119.926,37.4057 124.593,34.739 129.5,32.5C 131.848,32.4077 133.514,31.4077 134.5,29.5C 135.873,29.6567 137.207,29.49 138.5,29C 141.12,26.6011 144.12,24.9344 147.5,24C 167.272,17.7257 187.605,15.2257 208.5,16.5 Z"/></g>
<g><path style="opacity:0.212" fill="#7cbd91" d="M 228.5,20.5 C 234.778,21.1409 240.444,23.1409 245.5,26.5C 243.421,26.0293 241.421,25.3627 239.5,24.5C 236.565,23.7308 233.565,23.0641 230.5,22.5C 229.287,22.2528 228.62,21.5862 228.5,20.5 Z"/></g>
<g><path style="opacity:1" fill="#4fb36e" d="M 239.5,24.5 C 241.421,25.3627 243.421,26.0293 245.5,26.5C 248.581,27.5382 251.581,28.8715 254.5,30.5C 254.5,31.1667 254.5,31.8333 254.5,32.5C 249.674,31.0416 245.007,29.0416 240.5,26.5C 239.702,26.0431 239.369,25.3764 239.5,24.5 Z"/></g>
<g><path style="opacity:0.537" fill="#7ec896" d="M 134.5,29.5 C 133.514,31.4077 131.848,32.4077 129.5,32.5C 130.659,30.7497 132.326,29.7497 134.5,29.5 Z"/></g>
<g><path style="opacity:0.549" fill="#8fc2a0" d="M 254.5,30.5 C 256.754,31.1237 258.421,32.457 259.5,34.5C 257.833,33.8333 256.167,33.1667 254.5,32.5C 254.5,31.8333 254.5,31.1667 254.5,30.5 Z"/></g>
<g><path style="opacity:1" fill="#06452c" d="M 177.5,33.5 C 174.15,33.5056 171.15,34.5056 168.5,36.5C 167.482,35.8075 166.482,35.1408 165.5,34.5C 163.321,34.16 161.488,33.16 160,31.5C 159.409,30.5165 159.743,29.8499 161,29.5C 163.545,30.7381 166.045,32.0714 168.5,33.5C 171.725,30.966 174.725,30.966 177.5,33.5 Z"/></g>
<g><path style="opacity:1" fill="#278652" d="M 177.5,33.5 C 174.561,34.8191 171.561,36.1525 168.5,37.5C 166.484,37.4841 165.484,36.4841 165.5,34.5C 166.482,35.1408 167.482,35.8075 168.5,36.5C 171.15,34.5056 174.15,33.5056 177.5,33.5 Z"/></g>
<g><path style="opacity:1" fill="#15733e" d="M 119.5,41.5 C 122.355,40.1968 125.355,40.1968 128.5,41.5C 126.754,43.8541 124.421,44.8541 121.5,44.5C 126.807,41.9366 126.141,40.9366 119.5,41.5 Z"/></g>
<g><path style="opacity:0.133" fill="#767f89" d="M 115.5,40.5 C 115.5,41.1667 115.5,41.8333 115.5,42.5C 112.924,40.8834 111.924,41.2167 112.5,43.5C 112.167,43.5 111.833,43.5 111.5,43.5C 109.076,43.8076 106.743,43.4742 104.5,42.5C 107.94,40.7765 111.606,40.1098 115.5,40.5 Z"/></g>
<g><path style="opacity:1" fill="#e5fe8d" d="M 247.5,56.5 C 280.977,78.7902 296.311,110.124 293.5,150.5C 286.014,143.515 278.681,136.348 271.5,129C 270.167,128.333 268.833,128.333 267.5,129C 264.56,133.445 260.893,136.945 256.5,139.5C 236.498,117.998 215.998,96.9983 195,76.5C 181.368,90.4683 168.035,104.802 155,119.5C 152.143,123.869 148.81,127.869 145,131.5C 142.68,136.486 140.18,141.153 137.5,145.5C 131.486,140.32 125.319,135.32 119,130.5C 110.683,136.652 102.516,142.985 94.5,149.5C 93.1858,147.085 92.5191,144.252 92.5,141C 92.8194,134.486 93.3194,127.986 94,121.5C 96.5771,116.113 98.0771,110.446 98.5,104.5C 100.37,101.975 102.87,100.309 106,99.5C 105.351,98.1849 105.018,96.1849 105,93.5C 107.006,90.3283 109.506,87.6617 112.5,85.5C 114.034,81.1388 116.201,77.1388 119,73.5C 122.979,71.0168 126.813,68.3501 130.5,65.5C 131.844,63.4714 133.177,61.4714 134.5,59.5C 137.115,55.6903 140.782,53.6903 145.5,53.5C 149.086,53.4562 151.419,55.1229 152.5,58.5C 153.518,57.8075 154.518,57.1408 155.5,56.5C 155.833,56.5 156.167,56.5 156.5,56.5C 160.796,55.5704 165.13,54.7371 169.5,54C 171.661,52.2364 171.828,50.4031 170,48.5C 168.097,48.6938 166.263,48.6938 164.5,48.5C 165.737,47.7193 166.737,46.7193 167.5,45.5C 169.695,44.2309 171.861,44.2309 174,45.5C 175.242,43.4593 177.075,42.2927 179.5,42C 201.282,40.0886 221.615,44.4219 240.5,55C 242.866,55.4396 245.199,55.9396 247.5,56.5 Z"/></g>
<g><path style="opacity:1" fill="#08322a" d="M 115.5,42.5 C 116.959,42.5674 118.292,42.2341 119.5,41.5C 126.141,40.9366 126.807,41.9366 121.5,44.5C 119.236,45.2186 116.903,45.552 114.5,45.5C 114.167,44.5 113.5,43.8333 112.5,43.5C 111.924,41.2167 112.924,40.8834 115.5,42.5 Z"/></g>
<g><path style="opacity:1" fill="#17723a" d="M 121.5,44.5 C 119.684,48.5369 117.351,49.2036 114.5,46.5C 114.5,46.1667 114.5,45.8333 114.5,45.5C 116.903,45.552 119.236,45.2186 121.5,44.5 Z"/></g>
<g><path style="opacity:1" fill="#dbf992" d="M 215.5,42.5 C 219.841,44.6682 224.508,46.1682 229.5,47C 235.751,49.9558 241.751,53.1225 247.5,56.5C 245.199,55.9396 242.866,55.4396 240.5,55C 221.615,44.4219 201.282,40.0886 179.5,42C 177.075,42.2927 175.242,43.4593 174,45.5C 171.861,44.2309 169.695,44.2309 167.5,45.5C 166.737,46.7193 165.737,47.7193 164.5,48.5C 166.263,48.6938 168.097,48.6938 170,48.5C 171.828,50.4031 171.661,52.2364 169.5,54C 165.13,54.7371 160.796,55.5704 156.5,56.5C 159.529,54.6608 162.862,53.3275 166.5,52.5C 164.833,52.1667 163.167,51.8333 161.5,51.5C 158.259,51.4481 155.259,52.1148 152.5,53.5C 151.5,52.8333 150.5,52.1667 149.5,51.5C 149.937,49.9256 150.937,48.7589 152.5,48C 172.908,39.1628 193.908,37.3295 215.5,42.5 Z"/></g>
<g><path style="opacity:0.871" fill="#60b87d" d="M 111.5,43.5 C 111.833,43.5 112.167,43.5 112.5,43.5C 113.5,43.8333 114.167,44.5 114.5,45.5C 114.5,45.8333 114.5,46.1667 114.5,46.5C 113.127,46.3433 111.793,46.51 110.5,47C 107.931,49.4794 105.598,52.146 103.5,55C 102.552,55.4828 101.552,55.6495 100.5,55.5C 103.969,51.2775 107.636,47.2775 111.5,43.5 Z"/></g>
<g><path style="opacity:0.62" fill="#78c28f" d="M 279.5,49.5 C 281.5,50.8333 283.167,52.5 284.5,54.5C 281.833,53.8333 280.167,52.1667 279.5,49.5 Z"/></g>
<g><path style="opacity:1" fill="#133620" d="M 149.5,51.5 C 150.5,52.1667 151.5,52.8333 152.5,53.5C 153.9,54.1001 154.9,55.1001 155.5,56.5C 154.518,57.1408 153.518,57.8075 152.5,58.5C 151.419,55.1229 149.086,53.4562 145.5,53.5C 145.047,52.5416 144.381,51.7083 143.5,51C 145.545,50.5099 147.545,50.6765 149.5,51.5 Z"/></g>
<g><path style="opacity:1" fill="#375332" d="M 156.5,56.5 C 156.167,56.5 155.833,56.5 155.5,56.5C 154.9,55.1001 153.9,54.1001 152.5,53.5C 155.259,52.1148 158.259,51.4481 161.5,51.5C 163.167,51.8333 164.833,52.1667 166.5,52.5C 162.862,53.3275 159.529,54.6608 156.5,56.5 Z"/></g>
<g><path style="opacity:0.588" fill="#85cf9e" d="M 100.5,55.5 C 97.5136,59.817 94.1803,63.817 90.5,67.5C 92.7629,62.5736 96.0963,58.5736 100.5,55.5 Z"/></g>
<g><path style="opacity:1" fill="#26b053" d="M 269.5,41.5 C 273.704,43.0332 277.037,45.6998 279.5,49.5C 280.167,52.1667 281.833,53.8333 284.5,54.5C 287.003,57.6683 288.336,61.335 288.5,65.5C 289.978,65.238 291.311,65.5713 292.5,66.5C 294.248,68.8001 296.248,70.8001 298.5,72.5C 298.34,74.1992 298.506,75.8659 299,77.5C 301.852,80.5609 304.185,83.8943 306,87.5C 307.234,90.4198 308.234,93.4198 309,96.5C 309.902,98.4308 311.069,100.097 312.5,101.5C 313.11,102.391 313.443,103.391 313.5,104.5C 312.923,108.869 313.757,112.869 316,116.5C 318.536,130.148 319.036,143.814 317.5,157.5C 316.732,158.263 316.232,159.263 316,160.5C 315.517,159.552 315.351,158.552 315.5,157.5C 314.127,157.343 312.793,157.51 311.5,158C 312.299,160.481 312.466,163.314 312,166.5C 311.667,164.833 311.333,163.167 311,161.5C 310.667,161.833 310.333,162.167 310,162.5C 307.618,161.446 305.118,160.779 302.5,160.5C 302.859,162.766 302.192,164.599 300.5,166C 301.308,166.308 301.975,166.808 302.5,167.5C 301.846,169.115 301.346,170.782 301,172.5C 300.005,171.934 299.172,171.267 298.5,170.5C 296.323,170.414 294.323,169.747 292.5,168.5C 291.5,169.167 290.5,169.833 289.5,170.5C 288.948,168.997 288.948,167.331 289.5,165.5C 286.547,163.68 283.214,162.513 279.5,162C 278.726,159.595 278.226,157.095 278,154.5C 276.951,153.483 275.784,153.316 274.5,154C 275.622,155.613 275.122,156.78 273,157.5C 272.316,158.784 272.483,159.951 273.5,161C 272.953,161.925 272.287,162.758 271.5,163.5C 267.058,163.006 263.058,161.673 259.5,159.5C 259.541,155.757 258.874,155.59 257.5,159C 255.866,159.494 254.199,159.66 252.5,159.5C 252.297,157.61 252.963,156.11 254.5,155C 253.324,153.086 252.324,153.252 251.5,155.5C 250.682,158.107 250.182,160.774 250,163.5C 247.819,166.344 245.653,169.178 243.5,172C 243.836,173.03 244.503,173.53 245.5,173.5C 243.399,175.428 241.066,176.095 238.5,175.5C 240.771,171.726 243.604,168.393 247,165.5C 247.483,164.552 247.649,163.552 247.5,162.5C 248.23,158.969 248.896,155.303 249.5,151.5C 247.215,147.532 246.715,143.532 248,139.5C 248.81,144.046 250.143,144.38 252,140.5C 254.045,142.043 255.545,141.71 256.5,139.5C 260.893,136.945 264.56,133.445 267.5,129C 268.833,128.333 270.167,128.333 271.5,129C 278.681,136.348 286.014,143.515 293.5,150.5C 296.311,110.124 280.977,78.7902 247.5,56.5C 241.751,53.1225 235.751,49.9558 229.5,47C 224.508,46.1682 219.841,44.6682 215.5,42.5C 224.537,43.6992 233.037,46.3659 241,50.5C 242.693,48.9733 244.527,47.6399 246.5,46.5C 248.253,48.2611 250.253,49.5944 252.5,50.5C 253.91,50.1322 254.91,49.2989 255.5,48C 258.426,47.7822 261.26,47.2822 264,46.5C 264.667,45.8333 264.667,45.1667 264,44.5C 261.861,45.7691 259.695,45.7691 257.5,44.5C 261.26,43.7617 264.76,42.4284 268,40.5C 268.383,41.056 268.883,41.3893 269.5,41.5 Z"/></g>
<g><path style="opacity:1" fill="#54b472" d="M 284.5,54.5 C 290.614,59.4058 295.281,65.4058 298.5,72.5C 296.248,70.8001 294.248,68.8001 292.5,66.5C 291.311,65.5713 289.978,65.238 288.5,65.5C 288.336,61.335 287.003,57.6683 284.5,54.5 Z"/></g>
<g><path style="opacity:0.831" fill="#677074" d="M 56.5,73.5 C 54.2043,73.8041 53.871,74.8041 55.5,76.5C 53.4872,75.5248 52.1539,73.8581 51.5,71.5C 51.8333,71.1667 52.1667,70.8333 52.5,70.5C 53.9014,71.5207 55.2347,72.5207 56.5,73.5 Z"/></g>
<g><path style="opacity:0.686" fill="#3f4f58" d="M 78.5,75.5 C 80.4147,75.2155 82.0813,75.5489 83.5,76.5C 80.0591,78.2831 76.3924,79.6164 72.5,80.5C 74.9897,76.3511 73.6564,75.3511 68.5,77.5C 68.6107,76.8826 68.944,76.3826 69.5,76C 72.4816,75.502 75.4816,75.3354 78.5,75.5 Z"/></g>
<g><path style="opacity:0.027" fill="#acd4c1" d="M 78.5,75.5 C 80.6074,74.5318 82.9407,74.1984 85.5,74.5C 85.0679,75.7095 84.4013,76.7095 83.5,77.5C 83.5,77.1667 83.5,76.8333 83.5,76.5C 82.0813,75.5489 80.4147,75.2155 78.5,75.5 Z"/></g>
<g><path style="opacity:0.953" fill="#1e333c" d="M 56.5,73.5 C 60.7308,73.6993 64.2308,75.3659 67,78.5C 67.3826,77.944 67.8826,77.6107 68.5,77.5C 73.6564,75.3511 74.9897,76.3511 72.5,80.5C 69.0542,80.9819 65.7209,80.9819 62.5,80.5C 59.6689,79.9213 57.3356,78.588 55.5,76.5C 53.871,74.8041 54.2043,73.8041 56.5,73.5 Z"/></g>
<g><path style="opacity:1" fill="#51b271" d="M 89.5,68.5 C 87.8935,72.3393 86.3935,76.3393 85,80.5C 83.8873,81.305 82.7206,81.9717 81.5,82.5C 81.8925,80.7162 82.5592,79.0495 83.5,77.5C 84.4013,76.7095 85.0679,75.7095 85.5,74.5C 85.9287,71.8527 87.2621,69.8527 89.5,68.5 Z"/></g>
<g><path style="opacity:1" fill="#384f52" d="M 62.5,80.5 C 65.7209,80.9819 69.0542,80.9819 72.5,80.5C 70.4092,82.7535 67.9092,84.4201 65,85.5C 64.1667,85.1667 63.3333,84.8333 62.5,84.5C 63.8069,83.135 63.8069,81.8016 62.5,80.5 Z"/></g>
<g><path style="opacity:0.969" fill="#47a765" d="M 298.5,72.5 C 302.837,78.5023 306.67,84.8357 310,91.5C 311.727,94.6179 312.561,97.9513 312.5,101.5C 311.069,100.097 309.902,98.4308 309,96.5C 308.234,93.4198 307.234,90.4198 306,87.5C 304.185,83.8943 301.852,80.5609 299,77.5C 298.506,75.8659 298.34,74.1992 298.5,72.5 Z"/></g>
<g><path style="opacity:1" fill="#d2fa90" d="M 134.5,59.5 C 133.177,61.4714 131.844,63.4714 130.5,65.5C 126.813,68.3501 122.979,71.0168 119,73.5C 116.201,77.1388 114.034,81.1388 112.5,85.5C 109.506,87.6617 107.006,90.3283 105,93.5C 105.018,96.1849 105.351,98.1849 106,99.5C 102.87,100.309 100.37,101.975 98.5,104.5C 105.511,85.463 117.511,70.463 134.5,59.5 Z"/></g>
<g><path style="opacity:1" fill="#64e059" d="M 187.5,135.5 C 172.184,140.409 157.184,146.076 142.5,152.5C 141.702,152.043 141.369,151.376 141.5,150.5C 149.506,146.31 153.672,139.643 154,130.5C 155.385,129.449 156.385,128.116 157,126.5C 169.703,112.799 182.036,98.799 194,84.5C 197.158,88.3063 198.492,92.6397 198,97.5C 197.626,98.4162 197.126,99.2496 196.5,100C 193.678,101.574 190.844,103.074 188,104.5C 187.265,108.813 186.765,113.147 186.5,117.5C 193.484,115.59 200.317,113.257 207,110.5C 207.5,110.833 208,111.167 208.5,111.5C 203.115,118.219 198.115,125.219 193.5,132.5C 191.556,133.801 189.556,134.801 187.5,135.5 Z"/></g>
<g><path style="opacity:1" fill="#28b251" d="M 256.5,139.5 C 255.545,141.71 254.045,142.043 252,140.5C 250.143,144.38 248.81,144.046 248,139.5C 246.715,143.532 247.215,147.532 249.5,151.5C 248.896,155.303 248.23,158.969 247.5,162.5C 247.891,158.617 247.224,154.95 245.5,151.5C 244.833,151.167 244.167,150.833 243.5,150.5C 241.361,151.977 239.028,152.977 236.5,153.5C 236.511,151.983 237.177,150.816 238.5,150C 241.362,149.73 244.028,148.896 246.5,147.5C 245.624,146.749 244.624,146.249 243.5,146C 245.792,143.755 246.125,141.255 244.5,138.5C 242.023,138.949 240.023,138.283 238.5,136.5C 238.977,135.522 239.643,134.689 240.5,134C 247.743,133.35 248.243,131.184 242,127.5C 240.245,128.67 239.245,130.337 239,132.5C 238.676,130.431 237.842,130.098 236.5,131.5C 234.742,130.872 233.242,129.872 232,128.5C 231.51,129.793 231.343,131.127 231.5,132.5C 225.6,131.747 219.766,130.747 214,129.5C 211.5,129.833 209,130.167 206.5,130.5C 205.84,132.96 204.506,133.626 202.5,132.5C 203.006,129.609 204.006,126.942 205.5,124.5C 204.311,123.571 202.978,123.238 201.5,123.5C 201.66,125.199 201.494,126.866 201,128.5C 196.498,131.025 196.332,133.858 200.5,137C 198.125,139.153 196.125,138.82 194.5,136C 192.19,135.503 189.857,135.337 187.5,135.5C 189.556,134.801 191.556,133.801 193.5,132.5C 198.115,125.219 203.115,118.219 208.5,111.5C 208,111.167 207.5,110.833 207,110.5C 200.317,113.257 193.484,115.59 186.5,117.5C 186.765,113.147 187.265,108.813 188,104.5C 190.844,103.074 193.678,101.574 196.5,100C 197.126,99.2496 197.626,98.4162 198,97.5C 198.492,92.6397 197.158,88.3063 194,84.5C 182.036,98.799 169.703,112.799 157,126.5C 156.385,128.116 155.385,129.449 154,130.5C 153.672,139.643 149.506,146.31 141.5,150.5C 140.91,149.234 140.41,147.901 140,146.5C 138.539,147.883 137.706,147.549 137.5,145.5C 140.18,141.153 142.68,136.486 145,131.5C 148.81,127.869 152.143,123.869 155,119.5C 168.035,104.802 181.368,90.4683 195,76.5C 215.998,96.9983 236.498,117.998 256.5,139.5 Z"/></g>
<g><path style="opacity:1" fill="#63ba82" d="M 73.5,99.5 C 73.3566,105.26 72.0233,110.594 69.5,115.5C 69.5641,109.723 70.8975,104.39 73.5,99.5 Z"/></g>
<g><path style="opacity:1" fill="#b6f18a" d="M 98.5,104.5 C 98.0771,110.446 96.5771,116.113 94,121.5C 93.3194,127.986 92.8194,134.486 92.5,141C 92.5191,144.252 93.1858,147.085 94.5,149.5C 94.0269,150.906 93.0269,151.573 91.5,151.5C 91.5,151.167 91.5,150.833 91.5,150.5C 89.7418,134.397 92.0751,119.063 98.5,104.5 Z"/></g>
<g><path style="opacity:0.472" fill="#61b07d" d="M 313.5,104.5 C 316.245,111.48 318.078,118.814 319,126.5C 319.667,136.833 319.667,147.167 319,157.5C 318.802,159.382 318.302,161.048 317.5,162.5C 317.5,160.833 317.5,159.167 317.5,157.5C 319.036,143.814 318.536,130.148 316,116.5C 313.757,112.869 312.923,108.869 313.5,104.5 Z"/></g>
<g><path style="opacity:1" fill="#1dad50" d="M 236.5,153.5 C 236.167,153.5 235.833,153.5 235.5,153.5C 234.898,150.596 233.065,148.93 230,148.5C 227.493,150.155 224.659,150.989 221.5,151C 220.636,152.697 219.303,153.863 217.5,154.5C 213.529,153.444 209.529,153.444 205.5,154.5C 202.35,161.356 197.183,163.356 190,160.5C 184.884,161.144 179.718,161.811 174.5,162.5C 173.863,164.303 172.697,165.636 171,166.5C 168.597,165.219 166.763,163.386 165.5,161C 164.833,160.333 164.167,160.333 163.5,161C 164.451,161.718 164.617,162.551 164,163.5C 162.659,160.813 160.993,159.147 159,158.5C 155.266,159.151 151.766,160.484 148.5,162.5C 152.99,162.969 157.657,163.302 162.5,163.5C 161.635,173.12 159.635,182.454 156.5,191.5C 157.614,182.777 158.781,174.11 160,165.5C 156.333,168.336 152.833,171.336 149.5,174.5C 150.378,171.944 151.711,169.61 153.5,167.5C 153,167.167 152.5,166.833 152,166.5C 150.217,167.953 148.217,168.953 146,169.5C 145.167,169.167 144.333,168.833 143.5,168.5C 144.645,167.109 144.645,165.776 143.5,164.5C 141.914,166.173 141.247,168.173 141.5,170.5C 139.857,170.52 138.524,169.853 137.5,168.5C 134.371,170.4 131.037,171.733 127.5,172.5C 129.764,170.686 132.097,168.853 134.5,167C 144.374,162.145 154.041,156.812 163.5,151C 160.299,151.329 157.133,152.162 154,153.5C 146.808,157.005 139.642,160.505 132.5,164C 129.568,165.145 126.568,165.978 123.5,166.5C 123.5,164.5 123.5,162.5 123.5,160.5C 115.669,163.333 107.669,165.999 99.5,168.5C 97.7207,167.426 96.054,166.093 94.5,164.5C 91.864,165.971 89.364,167.637 87,169.5C 86.0754,168.953 85.2421,168.287 84.5,167.5C 85.8522,162.148 89.1855,158.814 94.5,157.5C 92.3828,160.59 89.7162,163.256 86.5,165.5C 87.365,166.583 88.365,166.749 89.5,166C 97.9873,159.511 106.987,153.845 116.5,149C 120.156,145.539 120.489,141.706 117.5,137.5C 110.549,144.304 103.216,150.637 95.5,156.5C 95.6567,155.127 95.49,153.793 95,152.5C 94.2904,153.973 93.1238,154.64 91.5,154.5C 91.5,153.5 91.5,152.5 91.5,151.5C 93.0269,151.573 94.0269,150.906 94.5,149.5C 102.516,142.985 110.683,136.652 119,130.5C 125.319,135.32 131.486,140.32 137.5,145.5C 137.706,147.549 138.539,147.883 140,146.5C 140.41,147.901 140.91,149.234 141.5,150.5C 141.369,151.376 141.702,152.043 142.5,152.5C 157.184,146.076 172.184,140.409 187.5,135.5C 189.857,135.337 192.19,135.503 194.5,136C 196.125,138.82 198.125,139.153 200.5,137C 196.332,133.858 196.498,131.025 201,128.5C 201.494,126.866 201.66,125.199 201.5,123.5C 202.978,123.238 204.311,123.571 205.5,124.5C 204.006,126.942 203.006,129.609 202.5,132.5C 204.506,133.626 205.84,132.96 206.5,130.5C 209,130.167 211.5,129.833 214,129.5C 219.766,130.747 225.6,131.747 231.5,132.5C 231.343,131.127 231.51,129.793 232,128.5C 233.242,129.872 234.742,130.872 236.5,131.5C 237.842,130.098 238.676,130.431 239,132.5C 239.245,130.337 240.245,128.67 242,127.5C 248.243,131.184 247.743,133.35 240.5,134C 239.643,134.689 238.977,135.522 238.5,136.5C 240.023,138.283 242.023,138.949 244.5,138.5C 246.125,141.255 245.792,143.755 243.5,146C 244.624,146.249 245.624,146.749 246.5,147.5C 244.028,148.896 241.362,149.73 238.5,150C 237.177,150.816 236.511,151.983 236.5,153.5 Z"/></g>
<g><path style="opacity:1" fill="#5cdf5d" d="M 269.5,137.5 C 270.675,137.281 271.675,137.614 272.5,138.5C 274.281,141.956 275.281,145.622 275.5,149.5C 271.529,148.428 268.029,146.428 265,143.5C 264.333,142.833 264.333,142.167 265,141.5C 266.992,140.672 268.492,139.339 269.5,137.5 Z"/></g>
<g><path style="opacity:1" fill="#64e159" d="M 205.5,154.5 C 202.678,156.413 199.678,158.079 196.5,159.5C 189.396,157.115 182.396,154.448 175.5,151.5C 190.953,145.733 206.953,142.566 223.5,142C 222.833,142.667 222.167,143.333 221.5,144C 216.239,147.785 210.906,151.285 205.5,154.5 Z"/></g>
<g><path style="opacity:1" fill="#60e05c" d="M 94.5,157.5 C 95.1667,157.5 95.5,157.167 95.5,156.5C 103.216,150.637 110.549,144.304 117.5,137.5C 120.489,141.706 120.156,145.539 116.5,149C 106.987,153.845 97.9873,159.511 89.5,166C 88.365,166.749 87.365,166.583 86.5,165.5C 89.7162,163.256 92.3828,160.59 94.5,157.5 Z"/></g>
<g><path style="opacity:1" fill="#5edf5c" d="M 298.5,170.5 C 293.117,165.955 287.45,161.622 281.5,157.5C 279.963,154.315 280.63,151.648 283.5,149.5C 289.363,156.194 295.03,163.027 300.5,170C 299.906,170.464 299.239,170.631 298.5,170.5 Z"/></g>
<g><path style="opacity:1" fill="#50b171" d="M 69.5,115.5 C 68.661,125.81 68.3277,136.143 68.5,146.5C 70.1952,157.946 71.8619,169.279 73.5,180.5C 74.5778,183.402 75.2444,186.402 75.5,189.5C 73.5377,186.135 72.0377,182.468 71,178.5C 66.8886,161.732 65.5553,144.732 67,127.5C 67.1894,123.233 68.0227,119.233 69.5,115.5 Z"/></g>
<g><path style="opacity:1" fill="#16a853" d="M 91.5,150.5 C 91.5,150.833 91.5,151.167 91.5,151.5C 91.5,152.5 91.5,153.5 91.5,154.5C 93.1238,154.64 94.2904,153.973 95,152.5C 95.49,153.793 95.6567,155.127 95.5,156.5C 95.5,157.167 95.1667,157.5 94.5,157.5C 89.1855,158.814 85.8522,162.148 84.5,167.5C 85.2421,168.287 86.0754,168.953 87,169.5C 89.364,167.637 91.864,165.971 94.5,164.5C 96.054,166.093 97.7207,167.426 99.5,168.5C 91.1373,173.013 82.4706,177.013 73.5,180.5C 71.8619,169.279 70.1952,157.946 68.5,146.5C 69.1515,147.091 69.8182,147.757 70.5,148.5C 71.3333,144.5 72.1667,140.5 73,136.5C 73.414,136.957 73.914,137.291 74.5,137.5C 75.5346,140.992 76.8679,144.325 78.5,147.5C 79.3236,150.785 79.8236,154.118 80,157.5C 81.1531,159.497 82.6531,159.83 84.5,158.5C 82.3674,155.672 81.034,152.506 80.5,149C 81.1305,146.184 80.4638,143.518 78.5,141C 79.1125,138.853 79.7792,136.686 80.5,134.5C 81.1667,136.167 81.8333,137.833 82.5,139.5C 83.1924,138.975 83.6924,138.308 84,137.5C 84.3095,138.766 84.8095,139.933 85.5,141C 84.5016,146.549 85.0016,152.049 87,157.5C 87.4652,156.069 88.2986,154.903 89.5,154C 88.6462,152.215 89.3129,151.049 91.5,150.5 Z"/></g>
<g><path style="opacity:1" fill="#65e258" d="M 247.5,162.5 C 247.649,163.552 247.483,164.552 247,165.5C 243.604,168.393 240.771,171.726 238.5,175.5C 241.066,176.095 243.399,175.428 245.5,173.5C 248.464,172.505 251.464,172.005 254.5,172C 263.316,179.573 272.316,186.906 281.5,194C 275.157,194.18 268.824,194.18 262.5,194C 250.854,199.489 239.187,204.989 227.5,210.5C 227.167,210 226.833,209.5 226.5,209C 228.233,206.042 229.233,202.875 229.5,199.5C 225.486,199.334 221.486,199.501 217.5,200C 187.141,205.171 156.808,210.338 126.5,215.5C 126.167,215.5 125.833,215.5 125.5,215.5C 125.5,214.5 125.5,213.5 125.5,212.5C 125.315,210.804 124.481,209.471 123,208.5C 122.503,210.81 122.337,213.143 122.5,215.5C 121.833,215.5 121.167,215.5 120.5,215.5C 115.248,216.995 109.915,218.328 104.5,219.5C 99.3809,218.305 94.3809,216.972 89.5,215.5C 89.5323,213.381 88.5323,212.048 86.5,211.5C 86.5,210.5 86.5,209.5 86.5,208.5C 98.0726,202.042 109.739,195.542 121.5,189C 127.627,188.153 133.627,186.819 139.5,185C 143.037,181.631 146.371,178.131 149.5,174.5C 152.833,171.336 156.333,168.336 160,165.5C 158.781,174.11 157.614,182.777 156.5,191.5C 155.378,193.288 155.211,195.288 156,197.5C 168.739,190.714 181.906,184.881 195.5,180C 204.663,173.248 214.33,167.248 224.5,162C 228.597,159.63 232.264,156.797 235.5,153.5C 235.833,153.5 236.167,153.5 236.5,153.5C 239.028,152.977 241.361,151.977 243.5,150.5C 244.167,150.833 244.833,151.167 245.5,151.5C 247.224,154.95 247.891,158.617 247.5,162.5 Z"/></g>
<g><path style="opacity:1" fill="#14a351" d="M 298.5,170.5 C 299.172,171.267 300.005,171.934 301,172.5C 301.346,170.782 301.846,169.115 302.5,167.5C 301.975,166.808 301.308,166.308 300.5,166C 302.192,164.599 302.859,162.766 302.5,160.5C 305.118,160.779 307.618,161.446 310,162.5C 310.333,162.167 310.667,161.833 311,161.5C 311.333,163.167 311.667,164.833 312,166.5C 312.466,163.314 312.299,160.481 311.5,158C 312.793,157.51 314.127,157.343 315.5,157.5C 315.351,158.552 315.517,159.552 316,160.5C 316.232,159.263 316.732,158.263 317.5,157.5C 317.5,159.167 317.5,160.833 317.5,162.5C 317.5,163.833 317.5,165.167 317.5,166.5C 316.542,166.953 315.708,167.619 315,168.5C 314.012,171.424 313.346,174.424 313,177.5C 311.842,177.998 311.009,178.831 310.5,180C 311.287,182.099 311.62,184.266 311.5,186.5C 311.167,187.833 310.833,189.167 310.5,190.5C 307.61,190.722 304.943,190.055 302.5,188.5C 301.509,190.323 300.176,191.823 298.5,193C 298.833,193.333 299.167,193.667 299.5,194C 297.765,194.651 296.098,194.485 294.5,193.5C 292.463,195.77 290.796,195.27 289.5,192C 289.645,191.228 289.978,190.561 290.5,190C 286.106,189.102 283.106,186.602 281.5,182.5C 279.885,183.154 278.218,183.654 276.5,184C 277.38,185.356 277.714,186.856 277.5,188.5C 278.873,188.343 280.207,188.51 281.5,189C 282.24,190.785 282.907,192.618 283.5,194.5C 271.758,194.074 260.758,196.407 250.5,201.5C 247.479,202.967 244.479,204.633 241.5,206.5C 243.826,207.39 246.159,207.557 248.5,207C 249.28,208.073 249.113,209.24 248,210.5C 240.512,207.928 233.345,208.595 226.5,212.5C 225.558,212.392 224.725,212.059 224,211.5C 223.426,209.508 222.259,208.008 220.5,207C 221.634,205.984 221.301,205.317 219.5,205C 218.5,204.333 217.5,204.333 216.5,205C 217.888,205.889 217.722,206.389 216,206.5C 214.715,206.05 213.548,205.383 212.5,204.5C 211.5,205.167 210.5,205.833 209.5,206.5C 207.808,205.031 205.808,204.365 203.5,204.5C 192.834,206 182.167,207.5 171.5,209C 156.903,213.333 141.903,215.833 126.5,216.5C 126.5,216.167 126.5,215.833 126.5,215.5C 156.808,210.338 187.141,205.171 217.5,200C 221.486,199.501 225.486,199.334 229.5,199.5C 229.233,202.875 228.233,206.042 226.5,209C 226.833,209.5 227.167,210 227.5,210.5C 239.187,204.989 250.854,199.489 262.5,194C 268.824,194.18 275.157,194.18 281.5,194C 272.316,186.906 263.316,179.573 254.5,172C 251.464,172.005 248.464,172.505 245.5,173.5C 244.503,173.53 243.836,173.03 243.5,172C 245.653,169.178 247.819,166.344 250,163.5C 250.182,160.774 250.682,158.107 251.5,155.5C 252.324,153.252 253.324,153.086 254.5,155C 252.963,156.11 252.297,157.61 252.5,159.5C 254.199,159.66 255.866,159.494 257.5,159C 258.874,155.59 259.541,155.757 259.5,159.5C 263.058,161.673 267.058,163.006 271.5,163.5C 272.287,162.758 272.953,161.925 273.5,161C 272.483,159.951 272.316,158.784 273,157.5C 275.122,156.78 275.622,155.613 274.5,154C 275.784,153.316 276.951,153.483 278,154.5C 278.226,157.095 278.726,159.595 279.5,162C 283.214,162.513 286.547,163.68 289.5,165.5C 288.948,167.331 288.948,168.997 289.5,170.5C 290.5,169.833 291.5,169.167 292.5,168.5C 294.323,169.747 296.323,170.414 298.5,170.5 Z"/></g>
<g><path style="opacity:1" fill="#13a552" d="M 235.5,153.5 C 232.264,156.797 228.597,159.63 224.5,162C 214.33,167.248 204.663,173.248 195.5,180C 181.906,184.881 168.739,190.714 156,197.5C 155.211,195.288 155.378,193.288 156.5,191.5C 159.635,182.454 161.635,173.12 162.5,163.5C 157.657,163.302 152.99,162.969 148.5,162.5C 151.766,160.484 155.266,159.151 159,158.5C 160.993,159.147 162.659,160.813 164,163.5C 164.617,162.551 164.451,161.718 163.5,161C 164.167,160.333 164.833,160.333 165.5,161C 166.763,163.386 168.597,165.219 171,166.5C 172.697,165.636 173.863,164.303 174.5,162.5C 179.718,161.811 184.884,161.144 190,160.5C 197.183,163.356 202.35,161.356 205.5,154.5C 209.529,153.444 213.529,153.444 217.5,154.5C 219.303,153.863 220.636,152.697 221.5,151C 224.659,150.989 227.493,150.155 230,148.5C 233.065,148.93 234.898,150.596 235.5,153.5 Z"/></g>
<g><path style="opacity:1" fill="#14a351" d="M 149.5,174.5 C 146.371,178.131 143.037,181.631 139.5,185C 133.627,186.819 127.627,188.153 121.5,189C 109.739,195.542 98.0726,202.042 86.5,208.5C 85.661,207.359 84.9943,206.026 84.5,204.5C 86.8067,203.193 86.64,201.86 84,200.5C 83.228,200.645 82.5613,200.978 82,201.5C 81.51,200.207 81.3433,198.873 81.5,197.5C 96.6041,188.617 111.937,180.284 127.5,172.5C 131.037,171.733 134.371,170.4 137.5,168.5C 138.524,169.853 139.857,170.52 141.5,170.5C 141.247,168.173 141.914,166.173 143.5,164.5C 144.645,165.776 144.645,167.109 143.5,168.5C 144.333,168.833 145.167,169.167 146,169.5C 148.217,168.953 150.217,167.953 152,166.5C 152.5,166.833 153,167.167 153.5,167.5C 151.711,169.61 150.378,171.944 149.5,174.5 Z"/></g>
<g><path style="opacity:1" fill="#65e15b" d="M 127.5,172.5 C 111.937,180.284 96.6041,188.617 81.5,197.5C 80.391,197.443 79.391,197.11 78.5,196.5C 76.9255,194.453 75.9255,192.119 75.5,189.5C 75.2444,186.402 74.5778,183.402 73.5,180.5C 82.4706,177.013 91.1373,173.013 99.5,168.5C 107.669,165.999 115.669,163.333 123.5,160.5C 123.5,162.5 123.5,164.5 123.5,166.5C 126.568,165.978 129.568,165.145 132.5,164C 139.642,160.505 146.808,157.005 154,153.5C 157.133,152.162 160.299,151.329 163.5,151C 154.041,156.812 144.374,162.145 134.5,167C 132.097,168.853 129.764,170.686 127.5,172.5 Z"/></g>
<g><path style="opacity:1" fill="#50ac75" d="M 317.5,166.5 C 316.068,173.452 314.068,180.119 311.5,186.5C 311.62,184.266 311.287,182.099 310.5,180C 311.009,178.831 311.842,177.998 313,177.5C 313.346,174.424 314.012,171.424 315,168.5C 315.708,167.619 316.542,166.953 317.5,166.5 Z"/></g>
<g><path style="opacity:1" fill="#129d53" d="M 310.5,190.5 C 309.236,194.678 307.236,198.345 304.5,201.5C 302.325,201.318 300.325,200.651 298.5,199.5C 296.67,199.776 295.003,200.443 293.5,201.5C 293.833,202.167 294.167,202.833 294.5,203.5C 293.158,204.876 291.825,206.209 290.5,207.5C 288.444,205.981 286.11,205.147 283.5,205C 286.179,203.211 286.013,202.045 283,201.5C 281.373,201.625 279.873,202.125 278.5,203C 281.028,203.669 281.028,204.502 278.5,205.5C 277.833,205.167 277.167,204.833 276.5,204.5C 272.772,206.406 268.772,207.572 264.5,208C 263.57,209.194 262.903,210.527 262.5,212C 263.409,213.789 263.576,215.623 263,217.5C 261.829,216.107 260.329,215.273 258.5,215C 259.603,213.32 259.27,211.82 257.5,210.5C 258.631,209.396 259.465,209.729 260,211.5C 261.128,209.655 261.628,207.655 261.5,205.5C 258.833,206.5 256.167,207.5 253.5,208.5C 253.249,206.83 252.582,205.33 251.5,204C 252.672,203.647 253.838,203.813 255,204.5C 256.059,204.37 256.892,203.87 257.5,203C 255.406,201.648 253.073,201.148 250.5,201.5C 260.758,196.407 271.758,194.074 283.5,194.5C 282.907,192.618 282.24,190.785 281.5,189C 280.207,188.51 278.873,188.343 277.5,188.5C 277.714,186.856 277.38,185.356 276.5,184C 278.218,183.654 279.885,183.154 281.5,182.5C 283.106,186.602 286.106,189.102 290.5,190C 289.978,190.561 289.645,191.228 289.5,192C 290.796,195.27 292.463,195.77 294.5,193.5C 296.098,194.485 297.765,194.651 299.5,194C 299.167,193.667 298.833,193.333 298.5,193C 300.176,191.823 301.509,190.323 302.5,188.5C 304.943,190.055 307.61,190.722 310.5,190.5 Z"/></g>
<g><path style="opacity:1" fill="#51ac6c" d="M 78.5,196.5 C 79.391,197.11 80.391,197.443 81.5,197.5C 81.3433,198.873 81.51,200.207 82,201.5C 82.5613,200.978 83.228,200.645 84,200.5C 86.64,201.86 86.8067,203.193 84.5,204.5C 84.9943,206.026 85.661,207.359 86.5,208.5C 86.5,209.5 86.5,210.5 86.5,211.5C 83.5676,206.635 80.901,201.635 78.5,196.5 Z"/></g>
<g><path style="opacity:1" fill="#159956" d="M 304.5,201.5 C 302.336,206.5 299.669,211.167 296.5,215.5C 294.25,215.181 292.25,215.681 290.5,217C 291.747,218.494 291.747,219.994 290.5,221.5C 287.338,220.347 286.671,221.347 288.5,224.5C 287.213,226.16 285.88,227.826 284.5,229.5C 282.929,228.691 281.262,228.357 279.5,228.5C 279.52,224.507 277.853,222.841 274.5,223.5C 272.989,224.502 271.322,225.169 269.5,225.5C 269.5,227.167 269.5,228.833 269.5,230.5C 268.167,230.5 266.833,230.5 265.5,230.5C 265.594,227.459 264.094,225.793 261,225.5C 260.51,224.207 260.343,222.873 260.5,221.5C 260.5,220.5 260.5,219.5 260.5,218.5C 258.833,218.5 257.167,218.5 255.5,218.5C 255.768,216.901 255.434,215.568 254.5,214.5C 254.675,212.379 254.341,210.379 253.5,208.5C 256.167,207.5 258.833,206.5 261.5,205.5C 261.628,207.655 261.128,209.655 260,211.5C 259.465,209.729 258.631,209.396 257.5,210.5C 259.27,211.82 259.603,213.32 258.5,215C 260.329,215.273 261.829,216.107 263,217.5C 263.576,215.623 263.409,213.789 262.5,212C 262.903,210.527 263.57,209.194 264.5,208C 268.772,207.572 272.772,206.406 276.5,204.5C 277.167,204.833 277.833,205.167 278.5,205.5C 281.028,204.502 281.028,203.669 278.5,203C 279.873,202.125 281.373,201.625 283,201.5C 286.013,202.045 286.179,203.211 283.5,205C 286.11,205.147 288.444,205.981 290.5,207.5C 291.825,206.209 293.158,204.876 294.5,203.5C 294.167,202.833 293.833,202.167 293.5,201.5C 295.003,200.443 296.67,199.776 298.5,199.5C 300.325,200.651 302.325,201.318 304.5,201.5 Z"/></g>
<g><path style="opacity:1" fill="#109855" d="M 250.5,201.5 C 253.073,201.148 255.406,201.648 257.5,203C 256.892,203.87 256.059,204.37 255,204.5C 253.838,203.813 252.672,203.647 251.5,204C 252.582,205.33 253.249,206.83 253.5,208.5C 252.1,209.1 251.1,210.1 250.5,211.5C 246.838,213.829 243.838,216.829 241.5,220.5C 239.833,221.333 238.167,222.167 236.5,223C 237.5,223.333 238.5,223.667 239.5,224C 237.649,225.684 235.982,227.517 234.5,229.5C 231.309,226.083 227.309,224.583 222.5,225C 222.167,224.667 221.833,224.333 221.5,224C 222.5,223.167 223.5,222.333 224.5,221.5C 223.965,219.899 222.965,219.399 221.5,220C 218.351,223.871 218.018,227.871 220.5,232C 220,232.5 219.5,233 219,233.5C 217.161,229.418 215.327,225.418 213.5,221.5C 212.239,223.453 211.073,225.453 210,227.5C 208.581,225.664 207.414,223.664 206.5,221.5C 206.167,221.667 205.833,221.833 205.5,222C 204.786,224.191 204.453,226.524 204.5,229C 188.5,229.667 172.5,229.667 156.5,229C 160.352,226.588 160.185,225.421 156,225.5C 152.246,226.238 148.912,227.904 146,230.5C 145.667,229.833 145.333,229.167 145,228.5C 143.274,229.576 141.441,229.743 139.5,229C 136.031,228.465 133.031,227.298 130.5,225.5C 130.5,223.167 130.5,220.833 130.5,218.5C 128.517,218.843 127.183,218.176 126.5,216.5C 141.903,215.833 156.903,213.333 171.5,209C 182.167,207.5 192.834,206 203.5,204.5C 205.808,204.365 207.808,205.031 209.5,206.5C 210.5,205.833 211.5,205.167 212.5,204.5C 213.548,205.383 214.715,206.05 216,206.5C 217.722,206.389 217.888,205.889 216.5,205C 217.5,204.333 218.5,204.333 219.5,205C 221.301,205.317 221.634,205.984 220.5,207C 222.259,208.008 223.426,209.508 224,211.5C 224.725,212.059 225.558,212.392 226.5,212.5C 233.345,208.595 240.512,207.928 248,210.5C 249.113,209.24 249.28,208.073 248.5,207C 246.159,207.557 243.826,207.39 241.5,206.5C 244.479,204.633 247.479,202.967 250.5,201.5 Z"/></g>
<g><path style="opacity:1" fill="#216d2b" d="M 125.5,212.5 C 124.883,212.389 124.383,212.056 124,211.5C 123.79,213.058 123.29,214.391 122.5,215.5C 122.337,213.143 122.503,210.81 123,208.5C 124.481,209.471 125.315,210.804 125.5,212.5 Z"/></g>
<g><path style="opacity:0.89" fill="#a4e39b" d="M 86.5,211.5 C 88.5323,212.048 89.5323,213.381 89.5,215.5C 89.5,215.833 89.5,216.167 89.5,216.5C 88.1103,215.101 87.1103,213.434 86.5,211.5 Z"/></g>
<g><path style="opacity:1" fill="#146f4c" d="M 120.5,215.5 C 121.167,215.5 121.833,215.5 122.5,215.5C 121.659,217.379 121.325,219.379 121.5,221.5C 118.918,221.025 116.918,221.692 115.5,223.5C 114.596,222.791 114.263,221.791 114.5,220.5C 118.31,221.024 120.31,219.357 120.5,215.5 Z"/></g>
<g><path style="opacity:1" fill="#136c47" d="M 125.5,215.5 C 125.833,215.5 126.167,215.5 126.5,215.5C 126.5,215.833 126.5,216.167 126.5,216.5C 127.183,218.176 128.517,218.843 130.5,218.5C 130.5,220.833 130.5,223.167 130.5,225.5C 129.833,225.5 129.167,225.5 128.5,225.5C 129.301,223.958 129.634,222.292 129.5,220.5C 128.167,220.5 126.833,220.5 125.5,220.5C 125.5,218.833 125.5,217.167 125.5,215.5 Z"/></g>
<g><path style="opacity:1" fill="#179656" d="M 89.5,215.5 C 94.3809,216.972 99.3809,218.305 104.5,219.5C 109.915,218.328 115.248,216.995 120.5,215.5C 120.31,219.357 118.31,221.024 114.5,220.5C 114.263,221.791 114.596,222.791 115.5,223.5C 118.172,225.391 119.172,228.058 118.5,231.5C 116.712,231.215 115.045,231.548 113.5,232.5C 115.756,233.421 116.756,235.088 116.5,237.5C 114.167,237.5 111.833,237.5 109.5,237.5C 108.504,237.414 107.671,237.748 107,238.5C 106.474,236.45 105.641,234.617 104.5,233C 103.207,232.51 101.873,232.343 100.5,232.5C 96.3523,227.552 92.6856,222.218 89.5,216.5C 89.5,216.167 89.5,215.833 89.5,215.5 Z"/></g>
<g><path style="opacity:1" fill="#044934" d="M 274.5,223.5 C 276.834,225.176 277.834,227.509 277.5,230.5C 278.5,230.5 279.5,230.5 280.5,230.5C 280.715,232.179 280.048,233.179 278.5,233.5C 276.919,231.858 276.253,229.858 276.5,227.5C 275.5,227.5 274.5,227.5 273.5,227.5C 274.234,226.292 274.567,224.959 274.5,223.5 Z"/></g>
<g><path style="opacity:1" fill="#043330" d="M 125.5,212.5 C 125.5,213.5 125.5,214.5 125.5,215.5C 125.5,217.167 125.5,218.833 125.5,220.5C 126.833,220.5 128.167,220.5 129.5,220.5C 129.634,222.292 129.301,223.958 128.5,225.5C 126.871,227.196 127.204,228.196 129.5,228.5C 130.172,229.267 131.005,229.934 132,230.5C 132.74,231.749 132.573,232.749 131.5,233.5C 129.965,231.948 128.131,230.615 126,229.5C 126.158,226.821 126.658,224.154 127.5,221.5C 125.5,221.5 123.5,221.5 121.5,221.5C 121.325,219.379 121.659,217.379 122.5,215.5C 123.29,214.391 123.79,213.058 124,211.5C 124.383,212.056 124.883,212.389 125.5,212.5 Z"/></g>
<g><path style="opacity:1" fill="#0b9255" d="M 250.5,211.5 C 249.36,214.025 248.693,216.692 248.5,219.5C 247.5,219.5 246.5,219.5 245.5,219.5C 245.955,221.367 246.622,223.2 247.5,225C 247.642,227.912 246.309,229.412 243.5,229.5C 244.348,231.481 244.848,233.481 245,235.5C 240.069,238.018 237.069,242.018 236,247.5C 235.292,248.381 234.458,249.047 233.5,249.5C 232.675,253.647 232.175,257.981 232,262.5C 228.11,263.437 225.944,261.77 225.5,257.5C 222.513,257.578 221.847,256.411 223.5,254C 223.164,252.97 222.497,252.47 221.5,252.5C 219.755,250.967 218.755,248.967 218.5,246.5C 219.376,246.631 220.043,246.298 220.5,245.5C 219.52,244.019 218.353,242.685 217,241.5C 216.235,239.934 216.402,238.601 217.5,237.5C 218.097,237.265 218.43,236.765 218.5,236C 216.513,233.524 215.513,230.69 215.5,227.5C 214.167,227.5 212.833,227.5 211.5,227.5C 211.701,230.765 210.534,233.431 208,235.5C 207.503,238.146 207.336,240.813 207.5,243.5C 203.812,244.861 201.479,247.528 200.5,251.5C 199.625,249.432 198.459,247.432 197,245.5C 195.908,248.044 195.241,250.711 195,253.5C 194.333,254.167 193.667,254.833 193,255.5C 192.583,252.578 191.583,249.911 190,247.5C 187.204,248.211 184.37,248.878 181.5,249.5C 180.575,248.359 179.741,248.359 179,249.5C 177.667,246.833 176.333,246.833 175,249.5C 169.259,248.525 163.425,248.192 157.5,248.5C 157.702,246.011 157.202,243.677 156,241.5C 155.506,243.134 155.34,244.801 155.5,246.5C 154.5,246.5 153.5,246.5 152.5,246.5C 152.784,244.585 152.451,242.919 151.5,241.5C 148.313,237.422 145.646,237.755 143.5,242.5C 142.549,243.919 142.216,245.585 142.5,247.5C 140.5,247.5 138.5,247.5 136.5,247.5C 136.511,245.453 136.844,243.453 137.5,241.5C 136.814,239.653 135.814,237.986 134.5,236.5C 137.081,230.85 135.414,228.183 129.5,228.5C 127.204,228.196 126.871,227.196 128.5,225.5C 129.167,225.5 129.833,225.5 130.5,225.5C 133.031,227.298 136.031,228.465 139.5,229C 141.441,229.743 143.274,229.576 145,228.5C 145.333,229.167 145.667,229.833 146,230.5C 148.912,227.904 152.246,226.238 156,225.5C 160.185,225.421 160.352,226.588 156.5,229C 172.5,229.667 188.5,229.667 204.5,229C 204.453,226.524 204.786,224.191 205.5,222C 205.833,221.833 206.167,221.667 206.5,221.5C 207.414,223.664 208.581,225.664 210,227.5C 211.073,225.453 212.239,223.453 213.5,221.5C 215.327,225.418 217.161,229.418 219,233.5C 219.5,233 220,232.5 220.5,232C 218.018,227.871 218.351,223.871 221.5,220C 222.965,219.399 223.965,219.899 224.5,221.5C 223.5,222.333 222.5,223.167 221.5,224C 221.833,224.333 222.167,224.667 222.5,225C 227.309,224.583 231.309,226.083 234.5,229.5C 235.982,227.517 237.649,225.684 239.5,224C 238.5,223.667 237.5,223.333 236.5,223C 238.167,222.167 239.833,221.333 241.5,220.5C 243.838,216.829 246.838,213.829 250.5,211.5 Z"/></g>
<g><path style="opacity:1" fill="#074434" d="M 253.5,208.5 C 254.341,210.379 254.675,212.379 254.5,214.5C 253.178,214.33 252.011,214.663 251,215.5C 250.751,221.489 249.251,226.989 246.5,232C 247.317,235.585 245.817,238.085 242,239.5C 240.415,244.216 238.248,248.549 235.5,252.5C 234.094,252.027 233.427,251.027 233.5,249.5C 234.458,249.047 235.292,248.381 236,247.5C 237.069,242.018 240.069,238.018 245,235.5C 244.848,233.481 244.348,231.481 243.5,229.5C 246.309,229.412 247.642,227.912 247.5,225C 246.622,223.2 245.955,221.367 245.5,219.5C 246.5,219.5 247.5,219.5 248.5,219.5C 248.693,216.692 249.36,214.025 250.5,211.5C 251.1,210.1 252.1,209.1 253.5,208.5 Z"/></g>
<g><path style="opacity:1" fill="#137c52" d="M 260.5,221.5 C 260.343,222.873 260.51,224.207 261,225.5C 264.094,225.793 265.594,227.459 265.5,230.5C 266.833,230.5 268.167,230.5 269.5,230.5C 269.5,228.833 269.5,227.167 269.5,225.5C 271.322,225.169 272.989,224.502 274.5,223.5C 274.567,224.959 274.234,226.292 273.5,227.5C 271.787,228.635 271.12,230.302 271.5,232.5C 264.669,231.755 263.669,233.755 268.5,238.5C 267.253,240.323 266.586,242.323 266.5,244.5C 267.5,244.5 268.5,244.5 269.5,244.5C 269.737,245.791 269.404,246.791 268.5,247.5C 266.167,247.5 263.833,247.5 261.5,247.5C 261.585,245.071 262.585,243.071 264.5,241.5C 262.664,239.569 260.998,237.569 259.5,235.5C 261.701,233.29 263.034,230.624 263.5,227.5C 261.139,227.674 258.806,228.007 256.5,228.5C 256.216,225.143 257.549,222.809 260.5,221.5 Z"/></g>
<g><path style="opacity:1" fill="#0b2a34" d="M 254.5,214.5 C 255.434,215.568 255.768,216.901 255.5,218.5C 257.167,218.5 258.833,218.5 260.5,218.5C 260.5,219.5 260.5,220.5 260.5,221.5C 257.549,222.809 256.216,225.143 256.5,228.5C 258.806,228.007 261.139,227.674 263.5,227.5C 263.034,230.624 261.701,233.29 259.5,235.5C 260.373,239.768 260.706,244.102 260.5,248.5C 263.385,248.806 266.052,248.473 268.5,247.5C 269.404,246.791 269.737,245.791 269.5,244.5C 268.5,244.5 267.5,244.5 266.5,244.5C 266.586,242.323 267.253,240.323 268.5,238.5C 263.669,233.755 264.669,231.755 271.5,232.5C 271.12,230.302 271.787,228.635 273.5,227.5C 274.5,227.5 275.5,227.5 276.5,227.5C 276.253,229.858 276.919,231.858 278.5,233.5C 278.67,234.822 278.337,235.989 277.5,237C 278.448,237.483 279.448,237.649 280.5,237.5C 280.5,238.5 280.5,239.5 280.5,240.5C 278.009,245.478 275.009,250.145 271.5,254.5C 270.094,254.973 269.427,255.973 269.5,257.5C 268.094,257.973 267.427,258.973 267.5,260.5C 267.573,262.027 266.906,263.027 265.5,263.5C 264.094,263.973 263.427,264.973 263.5,266.5C 263.5,266.833 263.5,267.167 263.5,267.5C 262.094,267.973 261.427,268.973 261.5,270.5C 260.094,270.973 259.427,271.973 259.5,273.5C 258.094,273.973 257.427,274.973 257.5,276.5C 257.573,278.027 256.906,279.027 255.5,279.5C 254.094,279.973 253.427,280.973 253.5,282.5C 252.094,282.973 251.427,283.973 251.5,285.5C 249.251,291.005 246.251,296.005 242.5,300.5C 241.094,300.973 240.427,301.973 240.5,303.5C 239.094,303.973 238.427,304.973 238.5,306.5C 238.573,308.027 237.906,309.027 236.5,309.5C 234.178,310.802 232.845,312.802 232.5,315.5C 228.682,323.135 224.349,330.469 219.5,337.5C 216.288,339.562 214.288,342.562 213.5,346.5C 210.578,352.686 206.911,358.352 202.5,363.5C 201.094,363.973 200.427,364.973 200.5,366.5C 199.226,370.381 197.393,374.048 195,377.5C 194.439,378.022 193.772,378.355 193,378.5C 187.968,373.767 184.468,368.1 182.5,361.5C 181.876,359.246 180.543,357.579 178.5,356.5C 174.69,350.899 170.856,345.232 167,339.5C 166.517,338.552 166.351,337.552 166.5,336.5C 165.712,332.562 163.712,329.562 160.5,327.5C 157.436,323.43 154.769,319.097 152.5,314.5C 150.913,310.317 148.579,306.65 145.5,303.5C 145.573,301.973 144.906,300.973 143.5,300.5C 143.573,298.973 142.906,297.973 141.5,297.5C 140.599,296.71 139.932,295.71 139.5,294.5C 139.573,292.973 138.906,291.973 137.5,291.5C 134.753,288.277 132.753,284.611 131.5,280.5C 130.92,278.251 129.587,276.585 127.5,275.5C 125.11,272.434 123.11,269.1 121.5,265.5C 121.573,263.973 120.906,262.973 119.5,262.5C 119.123,260.742 118.456,259.075 117.5,257.5C 117.833,256.833 118.167,256.167 118.5,255.5C 116.681,254.68 115.014,253.68 113.5,252.5C 112.094,252.027 111.427,251.027 111.5,249.5C 111.5,248.833 111.5,248.167 111.5,247.5C 113.12,245.587 115.12,244.253 117.5,243.5C 117.67,244.822 117.337,245.989 116.5,247C 121.424,246.768 121.758,245.101 117.5,242C 120.028,240.684 120.028,239.517 117.5,238.5C 120.136,232.956 121.47,227.289 121.5,221.5C 123.5,221.5 125.5,221.5 127.5,221.5C 126.658,224.154 126.158,226.821 126,229.5C 128.131,230.615 129.965,231.948 131.5,233.5C 131.5,234.167 131.167,234.5 130.5,234.5C 129.305,234.866 128.639,235.699 128.5,237C 129.535,238.274 130.702,239.44 132,240.5C 132.333,243.833 132.667,247.167 133,250.5C 133.383,251.056 133.883,251.389 134.5,251.5C 135.5,251.833 136.167,252.5 136.5,253.5C 137.398,254.158 138.398,254.824 139.5,255.5C 134.603,255.395 132.603,257.728 133.5,262.5C 135.527,262.662 137.527,262.495 139.5,262C 140.337,260.989 140.67,259.822 140.5,258.5C 141.5,258.5 142.5,258.5 143.5,258.5C 143.756,256.088 142.756,254.421 140.5,253.5C 142.382,251.957 144.382,251.123 146.5,251C 145.678,248.566 145.344,246.066 145.5,243.5C 146.002,241.915 147.002,241.415 148.5,242C 148.88,244.326 149.88,246.159 151.5,247.5C 152.394,249.308 153.394,251.142 154.5,253C 151.802,256.358 152.802,258.024 157.5,258C 158.252,258.671 158.586,259.504 158.5,260.5C 157.128,262.089 155.461,263.422 153.5,264.5C 155.982,265.574 158.316,266.908 160.5,268.5C 158.903,269.791 157.57,271.291 156.5,273C 159.245,275.235 160.912,278.068 161.5,281.5C 164.753,282.247 168.086,282.247 171.5,281.5C 171.737,280.209 171.404,279.209 170.5,278.5C 167.116,277.756 166.782,276.423 169.5,274.5C 170.467,273.194 171.801,272.527 173.5,272.5C 173.863,270.089 172.863,268.589 170.5,268C 171.984,266.426 173.651,265.093 175.5,264C 174.748,263.329 174.414,262.496 174.5,261.5C 175.172,260.733 176.005,260.066 177,259.5C 177.192,257.423 177.692,255.423 178.5,253.5C 182.083,256.622 183.75,260.622 183.5,265.5C 184.359,267.106 184.526,268.773 184,270.5C 184.908,272.439 186.408,273.439 188.5,273.5C 188.38,275.199 188.046,276.865 187.5,278.5C 187.453,280.038 188.12,281.038 189.5,281.5C 189.5,281.833 189.5,282.167 189.5,282.5C 189.611,283.117 189.944,283.617 190.5,284C 198.595,285.571 201.428,282.405 199,274.5C 200.987,273.782 202.821,272.782 204.5,271.5C 203.675,270.614 202.675,270.281 201.5,270.5C 201.325,268.379 201.659,266.379 202.5,264.5C 203.376,264.631 204.043,264.298 204.5,263.5C 203.395,262.108 202.061,260.941 200.5,260C 202.082,257.915 204.082,256.415 206.5,255.5C 206.137,254.817 205.804,254.15 205.5,253.5C 205.5,252.5 205.5,251.5 205.5,250.5C 207.144,250.714 208.644,250.38 210,249.5C 209.49,247.62 209.657,245.787 210.5,244C 212.833,243.333 215.167,243.333 217.5,244C 218.252,244.671 218.586,245.504 218.5,246.5C 217.494,247.979 217.494,249.646 218.5,251.5C 218.061,253.104 217.394,254.604 216.5,256C 216.818,258.375 218.151,259.542 220.5,259.5C 220.5,260.5 220.5,261.5 220.5,262.5C 221.5,262.5 222.5,262.5 223.5,262.5C 223.415,264.929 222.415,266.929 220.5,268.5C 220.709,269.086 221.043,269.586 221.5,270C 225.51,270.357 229.51,270.19 233.5,269.5C 233.433,268.041 233.766,266.708 234.5,265.5C 235.036,263.159 235.369,260.826 235.5,258.5C 237.747,257.626 240.08,257.292 242.5,257.5C 242.5,256.5 242.5,255.5 242.5,254.5C 239.612,255.01 237.279,254.344 235.5,252.5C 238.248,248.549 240.415,244.216 242,239.5C 245.817,238.085 247.317,235.585 246.5,232C 249.251,226.989 250.751,221.489 251,215.5C 252.011,214.663 253.178,214.33 254.5,214.5 Z"/></g>
<g><path style="opacity:1" fill="#359666" d="M 296.5,215.5 C 291.413,224.011 286.08,232.344 280.5,240.5C 280.5,239.5 280.5,238.5 280.5,237.5C 279.448,237.649 278.448,237.483 277.5,237C 278.337,235.989 278.67,234.822 278.5,233.5C 280.048,233.179 280.715,232.179 280.5,230.5C 279.5,230.5 278.5,230.5 277.5,230.5C 277.834,227.509 276.834,225.176 274.5,223.5C 277.853,222.841 279.52,224.507 279.5,228.5C 281.262,228.357 282.929,228.691 284.5,229.5C 285.88,227.826 287.213,226.16 288.5,224.5C 286.671,221.347 287.338,220.347 290.5,221.5C 291.747,219.994 291.747,218.494 290.5,217C 292.25,215.681 294.25,215.181 296.5,215.5 Z"/></g>
<g><path style="opacity:1" fill="#073132" d="M 121.5,221.5 C 121.47,227.289 120.136,232.956 117.5,238.5C 120.028,239.517 120.028,240.684 117.5,242C 121.758,245.101 121.424,246.768 116.5,247C 117.337,245.989 117.67,244.822 117.5,243.5C 115.12,244.253 113.12,245.587 111.5,247.5C 110.737,244.498 110.07,241.164 109.5,237.5C 111.833,237.5 114.167,237.5 116.5,237.5C 116.756,235.088 115.756,233.421 113.5,232.5C 115.045,231.548 116.712,231.215 118.5,231.5C 119.172,228.058 118.172,225.391 115.5,223.5C 116.918,221.692 118.918,221.025 121.5,221.5 Z"/></g>
<g><path style="opacity:1" fill="#328c62" d="M 100.5,232.5 C 101.873,232.343 103.207,232.51 104.5,233C 105.641,234.617 106.474,236.45 107,238.5C 107.671,237.748 108.504,237.414 109.5,237.5C 110.07,241.164 110.737,244.498 111.5,247.5C 111.5,248.167 111.5,248.833 111.5,249.5C 106.628,244.625 102.962,238.959 100.5,232.5 Z"/></g>
<g><path style="opacity:1" fill="#083431" d="M 217.5,237.5 C 216.402,238.601 216.235,239.934 217,241.5C 218.353,242.685 219.52,244.019 220.5,245.5C 220.043,246.298 219.376,246.631 218.5,246.5C 218.586,245.504 218.252,244.671 217.5,244C 215.167,243.333 212.833,243.333 210.5,244C 209.657,245.787 209.49,247.62 210,249.5C 208.644,250.38 207.144,250.714 205.5,250.5C 205.5,251.5 205.5,252.5 205.5,253.5C 203.896,252.713 203.229,251.38 203.5,249.5C 205.167,249.5 206.833,249.5 208.5,249.5C 208.682,245.742 208.682,241.909 208.5,238C 211.005,235.352 212.672,232.185 213.5,228.5C 214.46,231.73 215.793,234.73 217.5,237.5 Z"/></g>
<g><path style="opacity:1" fill="#06362f" d="M 259.5,235.5 C 260.998,237.569 262.664,239.569 264.5,241.5C 262.585,243.071 261.585,245.071 261.5,247.5C 263.833,247.5 266.167,247.5 268.5,247.5C 266.052,248.473 263.385,248.806 260.5,248.5C 260.706,244.102 260.373,239.768 259.5,235.5 Z"/></g>
<g><path style="opacity:1" fill="#05352f" d="M 130.5,234.5 C 131.763,237.52 133.43,240.354 135.5,243C 135.05,244.285 134.383,245.452 133.5,246.5C 134.309,248.071 134.643,249.738 134.5,251.5C 133.883,251.389 133.383,251.056 133,250.5C 132.667,247.167 132.333,243.833 132,240.5C 130.702,239.44 129.535,238.274 128.5,237C 128.639,235.699 129.305,234.866 130.5,234.5 Z"/></g>
<g><path style="opacity:1" fill="#0d5f44" d="M 151.5,241.5 C 151.5,243.5 151.5,245.5 151.5,247.5C 149.88,246.159 148.88,244.326 148.5,242C 147.002,241.415 146.002,241.915 145.5,243.5C 144.833,245.5 144.167,247.5 143.5,249.5C 143.5,247.167 143.5,244.833 143.5,242.5C 145.646,237.755 148.313,237.422 151.5,241.5 Z"/></g>
<g><path style="opacity:1" fill="#118557" d="M 129.5,228.5 C 135.414,228.183 137.081,230.85 134.5,236.5C 135.814,237.986 136.814,239.653 137.5,241.5C 136.844,243.453 136.511,245.453 136.5,247.5C 138.5,247.5 140.5,247.5 142.5,247.5C 142.216,245.585 142.549,243.919 143.5,242.5C 143.5,244.833 143.5,247.167 143.5,249.5C 141.156,250.917 138.823,252.25 136.5,253.5C 136.167,252.5 135.5,251.833 134.5,251.5C 134.643,249.738 134.309,248.071 133.5,246.5C 134.383,245.452 135.05,244.285 135.5,243C 133.43,240.354 131.763,237.52 130.5,234.5C 131.167,234.5 131.5,234.167 131.5,233.5C 132.573,232.749 132.74,231.749 132,230.5C 131.005,229.934 130.172,229.267 129.5,228.5 Z"/></g>
<g><path style="opacity:1" fill="#088955" d="M 151.5,241.5 C 152.451,242.919 152.784,244.585 152.5,246.5C 153.5,246.5 154.5,246.5 155.5,246.5C 155.34,244.801 155.506,243.134 156,241.5C 157.202,243.677 157.702,246.011 157.5,248.5C 163.425,248.192 169.259,248.525 175,249.5C 176.333,246.833 177.667,246.833 179,249.5C 179.741,248.359 180.575,248.359 181.5,249.5C 184.37,248.878 187.204,248.211 190,247.5C 191.583,249.911 192.583,252.578 193,255.5C 193.667,254.833 194.333,254.167 195,253.5C 195.241,250.711 195.908,248.044 197,245.5C 198.459,247.432 199.625,249.432 200.5,251.5C 199.929,252.973 199.929,254.64 200.5,256.5C 199.5,256.5 198.5,256.5 197.5,256.5C 197.34,258.199 197.506,259.866 198,261.5C 200.026,261.915 201.526,262.915 202.5,264.5C 201.659,266.379 201.325,268.379 201.5,270.5C 199.192,271.894 197.192,273.727 195.5,276C 199.782,279.484 199.282,281.984 194,283.5C 192.467,283.227 190.967,282.894 189.5,282.5C 189.5,282.167 189.5,281.833 189.5,281.5C 189.704,278.482 190.037,275.482 190.5,272.5C 189.178,272.67 188.011,272.337 187,271.5C 186.505,269.527 186.338,267.527 186.5,265.5C 185.5,265.5 184.5,265.5 183.5,265.5C 183.75,260.622 182.083,256.622 178.5,253.5C 177.692,255.423 177.192,257.423 177,259.5C 176.005,260.066 175.172,260.733 174.5,261.5C 172.908,263.656 171.242,265.822 169.5,268C 169.82,269.653 170.82,270.653 172.5,271C 171.552,271.483 170.552,271.649 169.5,271.5C 169.5,272.5 169.5,273.5 169.5,274.5C 166.782,276.423 167.116,277.756 170.5,278.5C 169.666,279.748 168.333,280.415 166.5,280.5C 165.167,280.167 163.833,279.833 162.5,279.5C 163.246,278.264 163.579,276.93 163.5,275.5C 162.325,275.719 161.325,275.386 160.5,274.5C 161.077,272.894 161.41,271.228 161.5,269.5C 160.113,266.635 159.113,263.635 158.5,260.5C 158.586,259.504 158.252,258.671 157.5,258C 152.802,258.024 151.802,256.358 154.5,253C 153.394,251.142 152.394,249.308 151.5,247.5C 151.5,245.5 151.5,243.5 151.5,241.5 Z"/></g>
<g><path style="opacity:1" fill="#073e39" d="M 145.5,243.5 C 145.344,246.066 145.678,248.566 146.5,251C 144.382,251.123 142.382,251.957 140.5,253.5C 142.756,254.421 143.756,256.088 143.5,258.5C 142.5,258.5 141.5,258.5 140.5,258.5C 140.67,259.822 140.337,260.989 139.5,262C 137.527,262.495 135.527,262.662 133.5,262.5C 132.603,257.728 134.603,255.395 139.5,255.5C 138.398,254.824 137.398,254.158 136.5,253.5C 138.823,252.25 141.156,250.917 143.5,249.5C 144.167,247.5 144.833,245.5 145.5,243.5 Z"/></g>
<g><path style="opacity:1" fill="#107b54" d="M 217.5,237.5 C 215.793,234.73 214.46,231.73 213.5,228.5C 212.672,232.185 211.005,235.352 208.5,238C 208.682,241.909 208.682,245.742 208.5,249.5C 206.833,249.5 205.167,249.5 203.5,249.5C 203.229,251.38 203.896,252.713 205.5,253.5C 205.804,254.15 206.137,254.817 206.5,255.5C 204.082,256.415 202.082,257.915 200.5,260C 202.061,260.941 203.395,262.108 204.5,263.5C 204.043,264.298 203.376,264.631 202.5,264.5C 201.526,262.915 200.026,261.915 198,261.5C 197.506,259.866 197.34,258.199 197.5,256.5C 198.5,256.5 199.5,256.5 200.5,256.5C 199.929,254.64 199.929,252.973 200.5,251.5C 201.479,247.528 203.812,244.861 207.5,243.5C 207.336,240.813 207.503,238.146 208,235.5C 210.534,233.431 211.701,230.765 211.5,227.5C 212.833,227.5 214.167,227.5 215.5,227.5C 215.513,230.69 216.513,233.524 218.5,236C 218.43,236.765 218.097,237.265 217.5,237.5 Z"/></g>
<g><path style="opacity:1" fill="#043b33" d="M 218.5,246.5 C 218.755,248.967 219.755,250.967 221.5,252.5C 221.288,254.384 220.288,255.717 218.5,256.5C 220.751,259.589 223.417,262.089 226.5,264C 221.117,268.252 222.117,269.586 229.5,268C 231.078,266.906 232.745,266.072 234.5,265.5C 233.766,266.708 233.433,268.041 233.5,269.5C 229.51,270.19 225.51,270.357 221.5,270C 221.043,269.586 220.709,269.086 220.5,268.5C 222.415,266.929 223.415,264.929 223.5,262.5C 222.5,262.5 221.5,262.5 220.5,262.5C 220.5,261.5 220.5,260.5 220.5,259.5C 218.151,259.542 216.818,258.375 216.5,256C 217.394,254.604 218.061,253.104 218.5,251.5C 217.494,249.646 217.494,247.979 218.5,246.5 Z"/></g>
<g><path style="opacity:1" fill="#59676e" d="M 113.5,252.5 C 115.014,253.68 116.681,254.68 118.5,255.5C 118.167,256.167 117.833,256.833 117.5,257.5C 118.456,259.075 119.123,260.742 119.5,262.5C 117,259.506 115,256.173 113.5,252.5 Z"/></g>
<g><path style="opacity:0.012" fill="#8691a1" d="M 271.5,254.5 C 271.573,256.027 270.906,257.027 269.5,257.5C 269.427,255.973 270.094,254.973 271.5,254.5 Z"/></g>
<g><path style="opacity:0.012" fill="#7c939a" d="M 269.5,257.5 C 269.573,259.027 268.906,260.027 267.5,260.5C 267.427,258.973 268.094,257.973 269.5,257.5 Z"/></g>
<g><path style="opacity:1" fill="#0f8158" d="M 233.5,249.5 C 233.427,251.027 234.094,252.027 235.5,252.5C 237.279,254.344 239.612,255.01 242.5,254.5C 242.5,255.5 242.5,256.5 242.5,257.5C 240.08,257.292 237.747,257.626 235.5,258.5C 235.369,260.826 235.036,263.159 234.5,265.5C 232.745,266.072 231.078,266.906 229.5,268C 222.117,269.586 221.117,268.252 226.5,264C 223.417,262.089 220.751,259.589 218.5,256.5C 220.288,255.717 221.288,254.384 221.5,252.5C 222.497,252.47 223.164,252.97 223.5,254C 221.847,256.411 222.513,257.578 225.5,257.5C 225.944,261.77 228.11,263.437 232,262.5C 232.175,257.981 232.675,253.647 233.5,249.5 Z"/></g>
<g><path style="opacity:0.063" fill="#6e7b83" d="M 119.5,262.5 C 120.906,262.973 121.573,263.973 121.5,265.5C 120.094,265.027 119.427,264.027 119.5,262.5 Z"/></g>
<g><path style="opacity:0.086" fill="#8d989f" d="M 265.5,263.5 C 265.573,265.027 264.906,266.027 263.5,266.5C 263.427,264.973 264.094,263.973 265.5,263.5 Z"/></g>
<g><path style="opacity:1" fill="#0d664d" d="M 183.5,265.5 C 184.5,265.5 185.5,265.5 186.5,265.5C 186.338,267.527 186.505,269.527 187,271.5C 188.011,272.337 189.178,272.67 190.5,272.5C 190.037,275.482 189.704,278.482 189.5,281.5C 188.12,281.038 187.453,280.038 187.5,278.5C 188.046,276.865 188.38,275.199 188.5,273.5C 186.408,273.439 184.908,272.439 184,270.5C 184.526,268.773 184.359,267.106 183.5,265.5 Z"/></g>
<g><path style="opacity:0.024" fill="#9196aa" d="M 263.5,267.5 C 263.573,269.027 262.906,270.027 261.5,270.5C 261.427,268.973 262.094,267.973 263.5,267.5 Z"/></g>
<g><path style="opacity:1" fill="#0c624a" d="M 174.5,261.5 C 174.414,262.496 174.748,263.329 175.5,264C 173.651,265.093 171.984,266.426 170.5,268C 172.863,268.589 173.863,270.089 173.5,272.5C 171.801,272.527 170.467,273.194 169.5,274.5C 169.5,273.5 169.5,272.5 169.5,271.5C 170.552,271.649 171.552,271.483 172.5,271C 170.82,270.653 169.82,269.653 169.5,268C 171.242,265.822 172.908,263.656 174.5,261.5 Z"/></g>
<g><path style="opacity:1" fill="#0e7655" d="M 158.5,260.5 C 159.113,263.635 160.113,266.635 161.5,269.5C 161.41,271.228 161.077,272.894 160.5,274.5C 161.325,275.386 162.325,275.719 163.5,275.5C 163.579,276.93 163.246,278.264 162.5,279.5C 163.833,279.833 165.167,280.167 166.5,280.5C 168.333,280.415 169.666,279.748 170.5,278.5C 171.404,279.209 171.737,280.209 171.5,281.5C 168.086,282.247 164.753,282.247 161.5,281.5C 160.912,278.068 159.245,275.235 156.5,273C 157.57,271.291 158.903,269.791 160.5,268.5C 158.316,266.908 155.982,265.574 153.5,264.5C 155.461,263.422 157.128,262.089 158.5,260.5 Z"/></g>
<g><path style="opacity:0.051" fill="#829ea1" d="M 261.5,270.5 C 261.573,272.027 260.906,273.027 259.5,273.5C 259.427,271.973 260.094,270.973 261.5,270.5 Z"/></g>
<g><path style="opacity:1" fill="#064339" d="M 201.5,270.5 C 202.675,270.281 203.675,270.614 204.5,271.5C 202.821,272.782 200.987,273.782 199,274.5C 201.428,282.405 198.595,285.571 190.5,284C 189.944,283.617 189.611,283.117 189.5,282.5C 190.967,282.894 192.467,283.227 194,283.5C 199.282,281.984 199.782,279.484 195.5,276C 197.192,273.727 199.192,271.894 201.5,270.5 Z"/></g>
<g><path style="opacity:0.082" fill="#7b8689" d="M 259.5,273.5 C 259.573,275.027 258.906,276.027 257.5,276.5C 257.427,274.973 258.094,273.973 259.5,273.5 Z"/></g>
<g><path style="opacity:0.667" fill="#677187" d="M 127.5,275.5 C 129.587,276.585 130.92,278.251 131.5,280.5C 129.413,279.415 128.08,277.749 127.5,275.5 Z"/></g>
<g><path style="opacity:0.035" fill="#7b9699" d="M 255.5,279.5 C 255.573,281.027 254.906,282.027 253.5,282.5C 253.427,280.973 254.094,279.973 255.5,279.5 Z"/></g>
<g><path style="opacity:0.086" fill="#7a8991" d="M 253.5,282.5 C 253.573,284.027 252.906,285.027 251.5,285.5C 251.427,283.973 252.094,282.973 253.5,282.5 Z"/></g>
<g><path style="opacity:1" fill="#0f554f" d="M 164.5,287.5 C 166.167,287.5 167.833,287.5 169.5,287.5C 169.5,288.5 169.5,289.5 169.5,290.5C 167.396,290.799 165.396,290.466 163.5,289.5C 163.863,288.817 164.196,288.15 164.5,287.5 Z"/></g>
<g><path style="opacity:0.035" fill="#8f95a4" d="M 137.5,291.5 C 138.906,291.973 139.573,292.973 139.5,294.5C 138.094,294.027 137.427,293.027 137.5,291.5 Z"/></g>
<g><path style="opacity:0.02" fill="#95afb1" d="M 141.5,297.5 C 142.906,297.973 143.573,298.973 143.5,300.5C 142.094,300.027 141.427,299.027 141.5,297.5 Z"/></g>
<g><path style="opacity:0.082" fill="#939ea0" d="M 143.5,300.5 C 144.906,300.973 145.573,301.973 145.5,303.5C 144.094,303.027 143.427,302.027 143.5,300.5 Z"/></g>
<g><path style="opacity:0.039" fill="#a0afb3" d="M 242.5,300.5 C 242.573,302.027 241.906,303.027 240.5,303.5C 240.427,301.973 241.094,300.973 242.5,300.5 Z"/></g>
<g><path style="opacity:0.055" fill="#8e9c9f" d="M 240.5,303.5 C 240.573,305.027 239.906,306.027 238.5,306.5C 238.427,304.973 239.094,303.973 240.5,303.5 Z"/></g>
<g><path style="opacity:0.612" fill="#738085" d="M 145.5,303.5 C 148.579,306.65 150.913,310.317 152.5,314.5C 149.421,311.35 147.087,307.683 145.5,303.5 Z"/></g>
<g><path style="opacity:0.051" fill="#77808c" d="M 236.5,309.5 C 235.66,311.853 234.326,313.853 232.5,315.5C 232.845,312.802 234.178,310.802 236.5,309.5 Z"/></g>
<g><path style="opacity:0.271" fill="#697b80" d="M 160.5,327.5 C 163.712,329.562 165.712,332.562 166.5,336.5C 163.769,334.054 161.769,331.054 160.5,327.5 Z"/></g>
<g><path style="opacity:0.255" fill="#77868b" d="M 219.5,337.5 C 217.735,340.709 215.735,343.709 213.5,346.5C 214.288,342.562 216.288,339.562 219.5,337.5 Z"/></g>
<g><path style="opacity:0.043" fill="#8f9ea2" d="M 178.5,356.5 C 180.543,357.579 181.876,359.246 182.5,361.5C 180.469,360.461 179.136,358.795 178.5,356.5 Z"/></g>
<g><path style="opacity:0.125" fill="#708888" d="M 202.5,363.5 C 202.573,365.027 201.906,366.027 200.5,366.5C 200.427,364.973 201.094,363.973 202.5,363.5 Z"/></g>
</svg>
